<mxfile host="app.diagrams.net" modified="2021-04-23T23:08:27.568Z" agent="5.0 (Windows NT 10.0; Win64; x64) AppleWebKit/537.36 (KHTML, like Gecko) Chrome/90.0.4430.85 Safari/537.36" etag="sZdOByXJInM3lG404esb" version="14.6.6" type="github">
  <diagram id="C5RBs43oDa-KdzZeNtuy" name="Page-1">
    <mxGraphModel dx="1170" dy="634" grid="1" gridSize="10" guides="1" tooltips="1" connect="1" arrows="1" fold="1" page="1" pageScale="1" pageWidth="827" pageHeight="1169" math="0" shadow="0">
      <root>
        <mxCell id="WIyWlLk6GJQsqaUBKTNV-0" />
        <mxCell id="WIyWlLk6GJQsqaUBKTNV-1" parent="WIyWlLk6GJQsqaUBKTNV-0" />
        <mxCell id="0cQ2ldFs9hgI7Fk9Hkqj-6" style="edgeStyle=orthogonalEdgeStyle;rounded=0;orthogonalLoop=1;jettySize=auto;html=1;exitX=0.5;exitY=1;exitDx=0;exitDy=0;" edge="1" parent="WIyWlLk6GJQsqaUBKTNV-1" source="zkfFHV4jXpPFQw0GAbJ--0" target="0cQ2ldFs9hgI7Fk9Hkqj-7">
          <mxGeometry relative="1" as="geometry">
            <mxPoint x="320.0952380952381" y="210" as="targetPoint" />
          </mxGeometry>
        </mxCell>
        <mxCell id="zkfFHV4jXpPFQw0GAbJ--0" value="App&#xa;" style="swimlane;fontStyle=2;align=center;verticalAlign=top;childLayout=stackLayout;horizontal=1;startSize=26;horizontalStack=0;resizeParent=1;resizeLast=0;collapsible=1;marginBottom=0;rounded=0;shadow=0;strokeWidth=1;" parent="WIyWlLk6GJQsqaUBKTNV-1" vertex="1">
          <mxGeometry x="240" y="60" width="160" height="112" as="geometry">
            <mxRectangle x="230" y="140" width="160" height="26" as="alternateBounds" />
          </mxGeometry>
        </mxCell>
        <mxCell id="zkfFHV4jXpPFQw0GAbJ--3" value="scrollBehavior&#xa;" style="text;align=center;verticalAlign=top;spacingLeft=4;spacingRight=4;overflow=hidden;rotatable=0;points=[[0,0.5],[1,0.5]];portConstraint=eastwest;rounded=0;shadow=0;html=0;" parent="zkfFHV4jXpPFQw0GAbJ--0" vertex="1">
          <mxGeometry y="26" width="160" height="26" as="geometry" />
        </mxCell>
        <mxCell id="0cQ2ldFs9hgI7Fk9Hkqj-5" style="edgeStyle=orthogonalEdgeStyle;rounded=0;orthogonalLoop=1;jettySize=auto;html=1;entryX=0;entryY=0.5;entryDx=0;entryDy=0;" edge="1" parent="WIyWlLk6GJQsqaUBKTNV-1" source="0cQ2ldFs9hgI7Fk9Hkqj-1" target="zkfFHV4jXpPFQw0GAbJ--3">
          <mxGeometry relative="1" as="geometry" />
        </mxCell>
        <mxCell id="0cQ2ldFs9hgI7Fk9Hkqj-32" style="edgeStyle=orthogonalEdgeStyle;rounded=0;orthogonalLoop=1;jettySize=auto;html=1;exitX=0;exitY=0.75;exitDx=0;exitDy=0;entryX=0.5;entryY=1;entryDx=0;entryDy=0;" edge="1" parent="WIyWlLk6GJQsqaUBKTNV-1" source="0cQ2ldFs9hgI7Fk9Hkqj-1" target="0cQ2ldFs9hgI7Fk9Hkqj-16">
          <mxGeometry relative="1" as="geometry">
            <mxPoint x="160" y="460" as="targetPoint" />
          </mxGeometry>
        </mxCell>
        <mxCell id="0cQ2ldFs9hgI7Fk9Hkqj-1" value="&lt;br&gt;&lt;br&gt;scrollBehavior&lt;br&gt;&lt;br&gt;setScrollBehavior" style="whiteSpace=wrap;html=1;aspect=fixed;" vertex="1" parent="WIyWlLk6GJQsqaUBKTNV-1">
          <mxGeometry x="80" y="10" width="110" height="110" as="geometry" />
        </mxCell>
        <mxCell id="0cQ2ldFs9hgI7Fk9Hkqj-17" style="edgeStyle=orthogonalEdgeStyle;rounded=0;orthogonalLoop=1;jettySize=auto;html=1;exitX=0;exitY=0.5;exitDx=0;exitDy=0;entryX=0;entryY=0.5;entryDx=0;entryDy=0;" edge="1" parent="WIyWlLk6GJQsqaUBKTNV-1" source="0cQ2ldFs9hgI7Fk9Hkqj-7" target="0cQ2ldFs9hgI7Fk9Hkqj-16">
          <mxGeometry relative="1" as="geometry" />
        </mxCell>
        <mxCell id="0cQ2ldFs9hgI7Fk9Hkqj-7" value="&lt;p style=&quot;line-height: 100%&quot;&gt;State: drinks&lt;/p&gt;" style="rounded=0;whiteSpace=wrap;html=1;verticalAlign=middle;" vertex="1" parent="WIyWlLk6GJQsqaUBKTNV-1">
          <mxGeometry x="260" y="190" width="120" height="83" as="geometry" />
        </mxCell>
        <mxCell id="0cQ2ldFs9hgI7Fk9Hkqj-13" value="" style="endArrow=none;html=1;exitX=0;exitY=0.25;exitDx=0;exitDy=0;entryX=1;entryY=0.25;entryDx=0;entryDy=0;" edge="1" parent="WIyWlLk6GJQsqaUBKTNV-1" source="0cQ2ldFs9hgI7Fk9Hkqj-7" target="0cQ2ldFs9hgI7Fk9Hkqj-7">
          <mxGeometry width="50" height="50" relative="1" as="geometry">
            <mxPoint x="350" y="110" as="sourcePoint" />
            <mxPoint x="400" y="60" as="targetPoint" />
          </mxGeometry>
        </mxCell>
        <mxCell id="0cQ2ldFs9hgI7Fk9Hkqj-14" value="Shop" style="rounded=0;whiteSpace=wrap;html=1;align=center;" vertex="1" parent="WIyWlLk6GJQsqaUBKTNV-1">
          <mxGeometry x="260" y="180" width="120" height="40" as="geometry" />
        </mxCell>
        <mxCell id="0cQ2ldFs9hgI7Fk9Hkqj-15" value="Kombucha" style="rounded=0;whiteSpace=wrap;html=1;align=center;" vertex="1" parent="WIyWlLk6GJQsqaUBKTNV-1">
          <mxGeometry x="260" y="300" width="120" height="30" as="geometry" />
        </mxCell>
        <mxCell id="0cQ2ldFs9hgI7Fk9Hkqj-20" style="edgeStyle=orthogonalEdgeStyle;rounded=0;orthogonalLoop=1;jettySize=auto;html=1;entryX=0.996;entryY=0.424;entryDx=0;entryDy=0;entryPerimeter=0;" edge="1" parent="WIyWlLk6GJQsqaUBKTNV-1" source="0cQ2ldFs9hgI7Fk9Hkqj-16" target="0cQ2ldFs9hgI7Fk9Hkqj-18">
          <mxGeometry relative="1" as="geometry">
            <mxPoint x="400" y="480" as="targetPoint" />
            <Array as="points">
              <mxPoint x="400" y="360" />
              <mxPoint x="400" y="481" />
            </Array>
          </mxGeometry>
        </mxCell>
        <mxCell id="0cQ2ldFs9hgI7Fk9Hkqj-16" value="drinks" style="rounded=0;whiteSpace=wrap;html=1;align=center;" vertex="1" parent="WIyWlLk6GJQsqaUBKTNV-1">
          <mxGeometry x="260" y="330" width="120" height="60" as="geometry" />
        </mxCell>
        <mxCell id="0cQ2ldFs9hgI7Fk9Hkqj-18" value="drink" style="whiteSpace=wrap;html=1;aspect=fixed;align=center;" vertex="1" parent="WIyWlLk6GJQsqaUBKTNV-1">
          <mxGeometry x="260" y="430" width="120" height="120" as="geometry" />
        </mxCell>
        <mxCell id="0cQ2ldFs9hgI7Fk9Hkqj-21" value="Modal" style="rounded=0;whiteSpace=wrap;html=1;align=center;" vertex="1" parent="WIyWlLk6GJQsqaUBKTNV-1">
          <mxGeometry x="260" y="430" width="120" height="30" as="geometry" />
        </mxCell>
        <mxCell id="0cQ2ldFs9hgI7Fk9Hkqj-22" style="edgeStyle=orthogonalEdgeStyle;rounded=0;orthogonalLoop=1;jettySize=auto;html=1;exitX=0.5;exitY=1;exitDx=0;exitDy=0;" edge="1" parent="WIyWlLk6GJQsqaUBKTNV-1" source="0cQ2ldFs9hgI7Fk9Hkqj-14" target="0cQ2ldFs9hgI7Fk9Hkqj-14">
          <mxGeometry relative="1" as="geometry" />
        </mxCell>
        <mxCell id="0cQ2ldFs9hgI7Fk9Hkqj-26" style="edgeStyle=orthogonalEdgeStyle;rounded=0;orthogonalLoop=1;jettySize=auto;html=1;entryX=1.029;entryY=0.572;entryDx=0;entryDy=0;entryPerimeter=0;" edge="1" parent="WIyWlLk6GJQsqaUBKTNV-1" source="0cQ2ldFs9hgI7Fk9Hkqj-24" target="0cQ2ldFs9hgI7Fk9Hkqj-7">
          <mxGeometry relative="1" as="geometry">
            <mxPoint x="600" y="240" as="targetPoint" />
            <Array as="points">
              <mxPoint x="600" y="345" />
              <mxPoint x="600" y="238" />
            </Array>
          </mxGeometry>
        </mxCell>
        <mxCell id="0cQ2ldFs9hgI7Fk9Hkqj-24" value="drinks" style="rounded=0;whiteSpace=wrap;html=1;align=center;" vertex="1" parent="WIyWlLk6GJQsqaUBKTNV-1">
          <mxGeometry x="420" y="300" width="140" height="90" as="geometry" />
        </mxCell>
        <mxCell id="0cQ2ldFs9hgI7Fk9Hkqj-25" value="DrinkForm" style="rounded=0;whiteSpace=wrap;html=1;align=center;" vertex="1" parent="WIyWlLk6GJQsqaUBKTNV-1">
          <mxGeometry x="420" y="300" width="140" height="30" as="geometry" />
        </mxCell>
        <mxCell id="0cQ2ldFs9hgI7Fk9Hkqj-28" style="edgeStyle=orthogonalEdgeStyle;rounded=0;orthogonalLoop=1;jettySize=auto;html=1;exitX=0.5;exitY=1;exitDx=0;exitDy=0;" edge="1" parent="WIyWlLk6GJQsqaUBKTNV-1" source="0cQ2ldFs9hgI7Fk9Hkqj-24" target="0cQ2ldFs9hgI7Fk9Hkqj-24">
          <mxGeometry relative="1" as="geometry" />
        </mxCell>
        <mxCell id="0cQ2ldFs9hgI7Fk9Hkqj-33" value="Context" style="rounded=0;whiteSpace=wrap;html=1;align=center;" vertex="1" parent="WIyWlLk6GJQsqaUBKTNV-1">
          <mxGeometry x="80" width="110" height="40" as="geometry" />
        </mxCell>
      </root>
    </mxGraphModel>
  </diagram>
</mxfile>
